<?xml version="1.0" standalone="no"?>
<!DOCTYPE svg PUBLIC "-//W3C//DTD SVG 20010904//EN"
 "http://www.w3.org/TR/2001/REC-SVG-20010904/DTD/svg10.dtd">
<svg version="1.0" xmlns="http://www.w3.org/2000/svg"
 width="32.000000pt" height="28.000000pt" viewBox="0 0 32.000000 28.000000"
 preserveAspectRatio="xMidYMid meet">

<g transform="translate(0.000000,28.000000) scale(0.100000,-0.100000)"
fill="#000000" stroke="none">
<path d="M93 250 c-37 -15 -64 -68 -61 -120 2 -25 7 -44 13 -42 5 1 8 20 6 41
-3 46 11 77 47 108 29 25 29 26 -5 13z"/>
<path d="M271 195 c18 -40 20 -54 11 -82 -8 -25 -7 -33 3 -33 34 0 22 111 -15
145 -20 18 -20 17 1 -30z"/>
<path d="M201 171 c-17 -28 -35 -51 -40 -51 -6 0 -13 16 -17 35 -3 19 -9 37
-13 39 -4 3 -22 -25 -40 -60 -19 -37 -45 -71 -60 -79 -23 -13 -24 -14 -5 -15
21 0 53 29 73 68 17 33 30 27 37 -18 8 -47 21 -42 49 20 23 52 35 51 35 -4 0
-52 6 -58 51 -49 l34 7 -30 6 c-30 5 -30 6 -30 72 0 37 -3 69 -6 73 -4 3 -21
-17 -38 -44z"/>
<path d="M77 53 c-13 -12 -7 -21 27 -37 43 -20 88 -20 127 0 42 21 29 29 -25
14 -46 -12 -80 -7 -107 16 -9 8 -19 11 -22 7z"/>
</g>
</svg>
