<?xml version="1.0" encoding="UTF-8"?>
<svg xmlns="http://www.w3.org/2000/svg" xmlns:xlink="http://www.w3.org/1999/xlink" width="32pt" height="28pt" viewBox="0 0 32 28" version="1.1">
<g id="surface1">
<path style=" stroke:none;fill-rule:nonzero;fill:rgb(0%,0%,0%);fill-opacity:1;" d="M 13.726562 2.871094 C 13.75 2.882812 13.78125 2.878906 13.792969 2.867188 C 13.804688 2.859375 13.785156 2.847656 13.746094 2.851562 C 13.707031 2.851562 13.695312 2.859375 13.726562 2.871094 Z M 13.726562 2.871094 "/>
<path style=" stroke:none;fill-rule:nonzero;fill:rgb(0%,0%,0%);fill-opacity:1;" d="M 25.476562 3.054688 C 25.511719 3.09375 25.546875 3.125 25.554688 3.125 C 25.566406 3.125 25.546875 3.09375 25.511719 3.054688 C 25.476562 3.015625 25.441406 2.984375 25.429688 2.984375 C 25.417969 2.984375 25.441406 3.015625 25.476562 3.054688 Z M 25.476562 3.054688 "/>
<path style=" stroke:none;fill-rule:nonzero;fill:rgb(0%,0%,0%);fill-opacity:1;" d="M 7.8125 3.078125 C 7.769531 3.136719 7.769531 3.140625 7.828125 3.09375 C 7.859375 3.070312 7.886719 3.042969 7.886719 3.035156 C 7.886719 3.007812 7.859375 3.023438 7.8125 3.078125 Z M 7.8125 3.078125 "/>
<path style=" stroke:none;fill-rule:nonzero;fill:rgb(0%,0%,0%);fill-opacity:1;" d="M 26.054688 3.515625 C 26.054688 3.523438 26.109375 3.574219 26.171875 3.632812 L 26.285156 3.734375 L 26.183594 3.617188 C 26.085938 3.515625 26.054688 3.488281 26.054688 3.515625 Z M 26.054688 3.515625 "/>
<path style=" stroke:none;fill-rule:nonzero;fill:rgb(0%,0%,0%);fill-opacity:1;" d="M 21.820312 3.683594 C 21.84375 3.707031 21.875 3.71875 21.882812 3.707031 C 21.894531 3.699219 21.875 3.675781 21.839844 3.667969 C 21.792969 3.644531 21.789062 3.648438 21.820312 3.683594 Z M 21.820312 3.683594 "/>
<path style=" stroke:none;fill-rule:nonzero;fill:rgb(0%,0%,0%);fill-opacity:1;" d="M 6.976562 3.785156 C 6.929688 3.824219 6.910156 3.855469 6.925781 3.855469 C 6.945312 3.855469 6.988281 3.824219 7.023438 3.785156 C 7.105469 3.699219 7.085938 3.699219 6.976562 3.785156 Z M 6.976562 3.785156 "/>
<path style=" stroke:none;fill-rule:nonzero;fill:rgb(0%,0%,0%);fill-opacity:1;" d="M 6.722656 4.03125 C 6.640625 4.097656 6.640625 4.101562 6.714844 4.066406 C 6.757812 4.046875 6.804688 4.011719 6.8125 3.992188 C 6.847656 3.9375 6.808594 3.953125 6.722656 4.03125 Z M 6.722656 4.03125 "/>
<path style=" stroke:none;fill-rule:nonzero;fill:rgb(0%,0%,0%);fill-opacity:1;" d="M 22.582031 4.046875 C 22.582031 4.074219 22.59375 4.085938 22.613281 4.078125 C 22.628906 4.066406 22.632812 4.042969 22.625 4.023438 C 22.589844 3.980469 22.582031 3.984375 22.582031 4.046875 Z M 22.582031 4.046875 "/>
<path style=" stroke:none;fill-rule:nonzero;fill:rgb(0%,0%,0%);fill-opacity:1;" d="M 26.601562 4.089844 C 26.617188 4.105469 26.644531 4.113281 26.664062 4.113281 C 26.6875 4.113281 26.726562 4.152344 26.75 4.203125 C 26.777344 4.257812 26.796875 4.265625 26.796875 4.234375 C 26.796875 4.167969 26.710938 4.085938 26.628906 4.078125 C 26.601562 4.070312 26.589844 4.078125 26.601562 4.089844 Z M 26.601562 4.089844 "/>
<path style=" stroke:none;fill-rule:nonzero;fill:rgb(0%,0%,0%);fill-opacity:1;" d="M 10.527344 4.203125 C 10.449219 4.265625 10.449219 4.269531 10.519531 4.238281 C 10.558594 4.21875 10.605469 4.183594 10.617188 4.167969 C 10.648438 4.113281 10.625 4.125 10.527344 4.203125 Z M 10.527344 4.203125 "/>
<path style=" stroke:none;fill-rule:nonzero;fill:rgb(0%,0%,0%);fill-opacity:1;" d="M 22.675781 4.144531 C 22.675781 4.152344 22.699219 4.171875 22.730469 4.179688 C 22.761719 4.191406 22.773438 4.1875 22.765625 4.167969 C 22.742188 4.132812 22.675781 4.117188 22.675781 4.144531 Z M 22.675781 4.144531 "/>
<path style=" stroke:none;fill-rule:nonzero;fill:rgb(0%,0%,0%);fill-opacity:1;" d="M 22.816406 4.210938 C 22.816406 4.21875 22.882812 4.269531 22.96875 4.324219 C 23.050781 4.378906 23.097656 4.398438 23.074219 4.371094 C 23.03125 4.320312 22.816406 4.1875 22.816406 4.210938 Z M 22.816406 4.210938 "/>
<path style=" stroke:none;fill-rule:nonzero;fill:rgb(0%,0%,0%);fill-opacity:1;" d="M 6.445312 4.316406 C 6.410156 4.359375 6.375 4.410156 6.375 4.421875 C 6.375 4.441406 6.40625 4.417969 6.445312 4.371094 C 6.5 4.3125 6.515625 4.304688 6.5 4.347656 C 6.476562 4.429688 6.503906 4.425781 6.550781 4.34375 C 6.601562 4.242188 6.535156 4.226562 6.445312 4.316406 Z M 6.445312 4.316406 "/>
<path style=" stroke:none;fill-rule:nonzero;fill:rgb(0%,0%,0%);fill-opacity:1;" d="M 10.160156 4.265625 C 10.152344 4.28125 10.164062 4.296875 10.195312 4.296875 C 10.222656 4.296875 10.234375 4.28125 10.226562 4.265625 C 10.214844 4.25 10.199219 4.234375 10.195312 4.234375 C 10.1875 4.234375 10.171875 4.25 10.160156 4.265625 Z M 10.160156 4.265625 "/>
<path style=" stroke:none;fill-rule:nonzero;fill:rgb(0%,0%,0%);fill-opacity:1;" d="M 26.964844 4.375 C 27.074219 4.496094 27.113281 4.578125 27.042969 4.53125 C 27.019531 4.519531 27.019531 4.535156 27.027344 4.566406 C 27.042969 4.597656 27.074219 4.613281 27.097656 4.605469 C 27.175781 4.578125 27.195312 4.652344 27.125 4.703125 C 27.089844 4.734375 27.066406 4.757812 27.078125 4.761719 C 27.148438 4.777344 27.292969 4.777344 27.304688 4.761719 C 27.3125 4.746094 27.210938 4.628906 27.085938 4.492188 C 26.953125 4.359375 26.902344 4.304688 26.964844 4.375 Z M 27.269531 4.714844 C 27.277344 4.734375 27.265625 4.746094 27.234375 4.746094 C 27.207031 4.746094 27.183594 4.734375 27.183594 4.714844 C 27.183594 4.703125 27.195312 4.6875 27.214844 4.6875 C 27.234375 4.6875 27.257812 4.703125 27.269531 4.714844 Z M 27.269531 4.714844 "/>
<path style=" stroke:none;fill-rule:nonzero;fill:rgb(0%,0%,0%);fill-opacity:1;" d="M 10.210938 4.398438 L 10.125 4.484375 L 10.222656 4.425781 C 10.273438 4.390625 10.316406 4.355469 10.316406 4.335938 C 10.316406 4.296875 10.308594 4.296875 10.210938 4.398438 Z M 10.210938 4.398438 "/>
<path style=" stroke:none;fill-rule:nonzero;fill:rgb(0%,0%,0%);fill-opacity:1;" d="M 23.21875 4.476562 C 23.289062 4.550781 23.308594 4.5625 23.308594 4.519531 C 23.308594 4.507812 23.273438 4.476562 23.230469 4.449219 C 23.152344 4.398438 23.152344 4.398438 23.21875 4.476562 Z M 23.21875 4.476562 "/>
<path style=" stroke:none;fill-rule:nonzero;fill:rgb(0%,0%,0%);fill-opacity:1;" d="M 6.226562 4.539062 C 6.175781 4.59375 6.144531 4.65625 6.152344 4.679688 C 6.160156 4.707031 6.144531 4.714844 6.101562 4.703125 C 6.050781 4.683594 6.050781 4.6875 6.089844 4.71875 C 6.128906 4.746094 6.15625 4.742188 6.1875 4.699219 C 6.210938 4.667969 6.222656 4.632812 6.214844 4.617188 C 6.203125 4.605469 6.226562 4.570312 6.257812 4.546875 C 6.308594 4.503906 6.3125 4.503906 6.292969 4.5625 C 6.269531 4.617188 6.273438 4.621094 6.320312 4.582031 C 6.363281 4.546875 6.382812 4.546875 6.4375 4.585938 C 6.488281 4.632812 6.492188 4.628906 6.445312 4.574219 C 6.421875 4.542969 6.375 4.515625 6.347656 4.515625 C 6.320312 4.515625 6.308594 4.496094 6.320312 4.480469 C 6.359375 4.417969 6.316406 4.445312 6.226562 4.539062 Z M 6.226562 4.539062 "/>
<path style=" stroke:none;fill-rule:nonzero;fill:rgb(0%,0%,0%);fill-opacity:1;" d="M 10.054688 4.503906 C 10.035156 4.550781 10.039062 4.554688 10.074219 4.523438 C 10.097656 4.5 10.109375 4.472656 10.097656 4.460938 C 10.089844 4.453125 10.066406 4.46875 10.054688 4.503906 Z M 10.054688 4.503906 "/>
<path style=" stroke:none;fill-rule:nonzero;fill:rgb(0%,0%,0%);fill-opacity:1;" d="M 23.5625 4.46875 C 23.542969 4.476562 23.53125 4.5 23.542969 4.519531 C 23.554688 4.542969 23.539062 4.546875 23.5 4.535156 C 23.460938 4.523438 23.410156 4.53125 23.378906 4.550781 C 23.339844 4.578125 23.34375 4.582031 23.40625 4.566406 C 23.464844 4.546875 23.480469 4.554688 23.46875 4.589844 C 23.457031 4.617188 23.519531 4.691406 23.625 4.765625 C 23.761719 4.867188 23.804688 4.886719 23.828125 4.847656 C 23.839844 4.820312 23.886719 4.792969 23.925781 4.785156 C 23.984375 4.773438 23.980469 4.765625 23.902344 4.75 C 23.847656 4.738281 23.804688 4.742188 23.808594 4.753906 C 23.808594 4.765625 23.808594 4.796875 23.804688 4.824219 C 23.804688 4.882812 23.75 4.839844 23.75 4.78125 C 23.75 4.757812 23.71875 4.738281 23.679688 4.738281 C 23.640625 4.738281 23.613281 4.71875 23.621094 4.695312 C 23.625 4.667969 23.613281 4.65625 23.589844 4.671875 C 23.574219 4.679688 23.554688 4.671875 23.554688 4.652344 C 23.554688 4.632812 23.542969 4.625 23.519531 4.636719 C 23.503906 4.644531 23.484375 4.640625 23.484375 4.621094 C 23.484375 4.601562 23.5 4.582031 23.519531 4.582031 C 23.539062 4.582031 23.570312 4.550781 23.589844 4.515625 C 23.613281 4.476562 23.625 4.445312 23.621094 4.449219 C 23.613281 4.449219 23.589844 4.457031 23.5625 4.46875 Z M 23.5625 4.46875 "/>
<path style=" stroke:none;fill-rule:nonzero;fill:rgb(0%,0%,0%);fill-opacity:1;" d="M 26.917969 4.480469 C 26.90625 4.5 26.878906 4.503906 26.859375 4.492188 C 26.839844 4.480469 26.839844 4.5 26.867188 4.546875 C 26.898438 4.609375 26.972656 4.617188 26.972656 4.5625 C 26.972656 4.550781 26.957031 4.554688 26.9375 4.566406 C 26.886719 4.597656 26.890625 4.539062 26.945312 4.484375 C 26.96875 4.460938 26.976562 4.445312 26.964844 4.445312 C 26.949219 4.445312 26.929688 4.460938 26.917969 4.480469 Z M 26.917969 4.480469 "/>
<path style=" stroke:none;fill-rule:nonzero;fill:rgb(0%,0%,0%);fill-opacity:1;" d="M 9.78125 4.503906 C 9.695312 4.523438 9.699219 4.570312 9.785156 4.570312 C 9.824219 4.570312 9.847656 4.558594 9.839844 4.546875 C 9.832031 4.53125 9.851562 4.511719 9.882812 4.503906 C 9.925781 4.492188 9.929688 4.484375 9.894531 4.484375 C 9.867188 4.484375 9.8125 4.492188 9.78125 4.503906 Z M 9.78125 4.503906 "/>
<path style=" stroke:none;fill-rule:nonzero;fill:rgb(0%,0%,0%);fill-opacity:1;" d="M 9.929688 4.566406 C 9.902344 4.597656 9.902344 4.617188 9.921875 4.617188 C 9.964844 4.617188 10.015625 4.550781 9.988281 4.527344 C 9.980469 4.519531 9.953125 4.535156 9.929688 4.566406 Z M 9.929688 4.566406 "/>
<path style=" stroke:none;fill-rule:nonzero;fill:rgb(0%,0%,0%);fill-opacity:1;" d="M 9.601562 4.601562 C 9.589844 4.628906 9.59375 4.660156 9.617188 4.671875 C 9.640625 4.6875 9.636719 4.707031 9.613281 4.738281 C 9.554688 4.808594 9.652344 4.828125 9.738281 4.761719 C 9.835938 4.6875 9.839844 4.636719 9.753906 4.632812 C 9.699219 4.628906 9.691406 4.640625 9.71875 4.671875 C 9.742188 4.703125 9.734375 4.726562 9.695312 4.761719 C 9.640625 4.800781 9.636719 4.800781 9.660156 4.75 C 9.667969 4.714844 9.664062 4.679688 9.648438 4.671875 C 9.628906 4.660156 9.625 4.628906 9.636719 4.601562 C 9.648438 4.574219 9.648438 4.546875 9.636719 4.546875 C 9.625 4.546875 9.613281 4.574219 9.601562 4.601562 Z M 9.601562 4.601562 "/>
<path style=" stroke:none;fill-rule:nonzero;fill:rgb(0%,0%,0%);fill-opacity:1;" d="M 9.308594 4.765625 C 9.296875 4.789062 9.300781 4.792969 9.324219 4.777344 C 9.390625 4.734375 9.445312 4.789062 9.398438 4.847656 C 9.375 4.871094 9.34375 4.890625 9.335938 4.878906 C 9.320312 4.871094 9.304688 4.890625 9.304688 4.917969 C 9.304688 4.953125 9.335938 4.941406 9.402344 4.878906 C 9.449219 4.828125 9.507812 4.800781 9.523438 4.816406 C 9.539062 4.832031 9.542969 4.824219 9.527344 4.796875 C 9.515625 4.773438 9.488281 4.765625 9.472656 4.773438 C 9.453125 4.785156 9.433594 4.777344 9.417969 4.757812 C 9.390625 4.710938 9.339844 4.710938 9.308594 4.765625 Z M 9.308594 4.765625 "/>
<path style=" stroke:none;fill-rule:nonzero;fill:rgb(0%,0%,0%);fill-opacity:1;" d="M 24.050781 4.792969 C 24.019531 4.808594 24.015625 4.828125 24.03125 4.828125 C 24.054688 4.828125 24.089844 4.808594 24.121094 4.792969 C 24.148438 4.773438 24.160156 4.757812 24.136719 4.757812 C 24.121094 4.757812 24.078125 4.773438 24.050781 4.792969 Z M 24.050781 4.792969 "/>
<path style=" stroke:none;fill-rule:nonzero;fill:rgb(0%,0%,0%);fill-opacity:1;" d="M 5.875 4.921875 C 5.632812 5.175781 5.453125 5.417969 5.476562 5.453125 C 5.488281 5.472656 5.480469 5.484375 5.457031 5.480469 C 5.433594 5.472656 5.351562 5.554688 5.269531 5.660156 C 5.195312 5.765625 5.160156 5.824219 5.199219 5.789062 C 5.261719 5.734375 5.28125 5.734375 5.304688 5.769531 C 5.316406 5.796875 5.316406 5.804688 5.300781 5.792969 C 5.285156 5.777344 5.21875 5.804688 5.15625 5.859375 C 5.0625 5.921875 5.039062 5.964844 5.050781 6.027344 C 5.058594 6.078125 5.054688 6.105469 5.03125 6.09375 C 5.015625 6.078125 5.007812 6.054688 5.019531 6.039062 C 5.03125 6.019531 5.03125 6.007812 5.023438 6.007812 C 4.984375 6.007812 4.753906 6.394531 4.769531 6.425781 C 4.785156 6.445312 4.773438 6.453125 4.753906 6.453125 C 4.730469 6.445312 4.589844 6.640625 4.433594 6.890625 C 3.386719 8.597656 2.71875 10.601562 2.492188 12.707031 C 2.425781 13.34375 2.4375 14.953125 2.515625 15.609375 C 2.707031 17.25 3.132812 18.703125 3.875 20.238281 L 4.121094 20.742188 L 4.265625 20.605469 C 4.59375 20.292969 5.109375 19.65625 5.578125 18.984375 L 5.886719 18.539062 L 5.808594 18.339844 C 4.707031 15.554688 4.695312 12.578125 5.78125 9.84375 C 6.199219 8.785156 6.90625 7.59375 7.574219 6.796875 C 7.671875 6.683594 7.734375 6.574219 7.726562 6.550781 C 7.710938 6.527344 7.714844 6.519531 7.730469 6.539062 C 7.746094 6.550781 7.804688 6.519531 7.859375 6.46875 C 7.960938 6.375 7.992188 6.296875 7.914062 6.339844 C 7.886719 6.355469 7.878906 6.351562 7.898438 6.332031 C 7.914062 6.316406 7.941406 6.300781 7.949219 6.300781 C 8.007812 6.296875 8.0625 6.242188 8.042969 6.207031 C 8.027344 6.1875 8.03125 6.179688 8.054688 6.191406 C 8.109375 6.226562 8.242188 6.0625 8.21875 5.984375 C 8.199219 5.933594 8.203125 5.929688 8.234375 5.972656 C 8.265625 6.015625 8.320312 5.976562 8.546875 5.757812 C 8.695312 5.609375 8.910156 5.421875 9.015625 5.328125 C 9.121094 5.242188 9.207031 5.152344 9.207031 5.128906 C 9.210938 5.105469 9.230469 5.089844 9.246094 5.09375 C 9.269531 5.097656 9.285156 5.078125 9.285156 5.046875 C 9.285156 5.019531 9.269531 5 9.253906 5 C 9.238281 5 9.226562 5.015625 9.226562 5.035156 C 9.226562 5.058594 9.203125 5.058594 9.160156 5.039062 C 9.078125 4.992188 9 5.066406 9.023438 5.164062 C 9.035156 5.207031 9.042969 5.203125 9.050781 5.140625 C 9.054688 5.058594 9.054688 5.058594 9.085938 5.121094 C 9.113281 5.199219 9.039062 5.3125 8.957031 5.3125 C 8.933594 5.3125 8.890625 5.34375 8.863281 5.382812 C 8.824219 5.4375 8.804688 5.445312 8.792969 5.40625 C 8.78125 5.382812 8.804688 5.339844 8.839844 5.316406 C 8.878906 5.296875 8.902344 5.261719 8.890625 5.242188 C 8.855469 5.183594 8.792969 5.203125 8.816406 5.265625 C 8.835938 5.308594 8.824219 5.316406 8.769531 5.300781 C 8.707031 5.289062 8.703125 5.296875 8.734375 5.351562 C 8.757812 5.390625 8.757812 5.417969 8.734375 5.417969 C 8.71875 5.417969 8.695312 5.394531 8.6875 5.371094 C 8.679688 5.351562 8.660156 5.339844 8.644531 5.355469 C 8.628906 5.367188 8.644531 5.421875 8.675781 5.476562 L 8.734375 5.574219 L 8.664062 5.492188 C 8.628906 5.453125 8.582031 5.417969 8.558594 5.417969 C 8.539062 5.417969 8.519531 5.390625 8.519531 5.363281 C 8.519531 5.335938 8.542969 5.3125 8.570312 5.3125 C 8.59375 5.3125 8.625 5.28125 8.636719 5.242188 C 8.648438 5.203125 8.636719 5.171875 8.609375 5.171875 C 8.585938 5.171875 8.554688 5.203125 8.546875 5.242188 C 8.535156 5.28125 8.515625 5.3125 8.496094 5.308594 C 8.367188 5.289062 5.980469 5.320312 6.019531 5.34375 C 6.054688 5.367188 6.054688 5.382812 6 5.40625 C 5.960938 5.421875 5.910156 5.433594 5.890625 5.429688 C 5.867188 5.425781 5.828125 5.421875 5.804688 5.421875 C 5.789062 5.421875 5.78125 5.398438 5.796875 5.375 C 5.8125 5.351562 5.796875 5.34375 5.746094 5.355469 C 5.660156 5.378906 5.5625 5.296875 5.640625 5.269531 C 5.664062 5.261719 5.714844 5.269531 5.746094 5.292969 C 5.792969 5.316406 5.820312 5.3125 5.871094 5.269531 C 5.90625 5.238281 5.972656 5.207031 6.019531 5.199219 L 6.109375 5.183594 L 6.019531 5.175781 C 5.929688 5.171875 5.808594 5.078125 5.808594 5.015625 C 5.8125 4.996094 5.839844 5.015625 5.878906 5.0625 C 5.914062 5.105469 5.953125 5.125 5.964844 5.109375 C 5.976562 5.089844 5.960938 5.070312 5.933594 5.054688 C 5.90625 5.046875 5.878906 5.011719 5.878906 4.976562 C 5.878906 4.9375 5.890625 4.925781 5.910156 4.949219 C 5.941406 4.996094 6.007812 4.992188 6.0625 4.9375 C 6.097656 4.902344 6.09375 4.886719 6.054688 4.84375 C 6.007812 4.796875 5.984375 4.804688 5.875 4.921875 Z M 6.042969 4.925781 C 6.027344 4.945312 5.996094 4.953125 5.964844 4.941406 C 5.925781 4.925781 5.921875 4.914062 5.953125 4.871094 C 6.003906 4.816406 6.082031 4.863281 6.042969 4.925781 Z M 9.164062 5.125 C 9.140625 5.191406 9.128906 5.1875 9.109375 5.109375 C 9.097656 5.0625 9.105469 5.046875 9.140625 5.058594 C 9.164062 5.066406 9.175781 5.097656 9.164062 5.125 Z M 5.84375 5.1875 C 5.84375 5.203125 5.820312 5.199219 5.792969 5.171875 C 5.71875 5.113281 5.726562 5.15625 5.804688 5.230469 C 5.859375 5.289062 5.859375 5.289062 5.792969 5.265625 C 5.753906 5.246094 5.699219 5.234375 5.675781 5.234375 C 5.652344 5.234375 5.660156 5.203125 5.710938 5.148438 C 5.785156 5.074219 5.839844 5.085938 5.84375 5.1875 Z M 5.609375 5.421875 C 5.582031 5.449219 5.5625 5.445312 5.546875 5.414062 C 5.523438 5.386719 5.53125 5.378906 5.5625 5.398438 C 5.597656 5.421875 5.605469 5.414062 5.585938 5.359375 C 5.5625 5.308594 5.566406 5.300781 5.601562 5.335938 C 5.632812 5.371094 5.636719 5.390625 5.609375 5.421875 Z M 8.484375 5.363281 C 8.484375 5.410156 8.332031 5.417969 7.300781 5.417969 C 6.519531 5.417969 6.125 5.40625 6.148438 5.382812 C 6.167969 5.359375 6.632812 5.34375 7.324219 5.335938 C 7.953125 5.332031 8.472656 5.328125 8.480469 5.320312 C 8.480469 5.316406 8.484375 5.335938 8.484375 5.363281 Z M 8.804688 5.464844 C 8.804688 5.476562 8.789062 5.492188 8.769531 5.503906 C 8.75 5.515625 8.730469 5.507812 8.730469 5.488281 C 8.730469 5.46875 8.75 5.453125 8.769531 5.453125 C 8.789062 5.453125 8.804688 5.457031 8.804688 5.464844 Z M 5.582031 5.515625 C 5.589844 5.535156 5.589844 5.558594 5.570312 5.570312 C 5.554688 5.578125 5.539062 5.566406 5.539062 5.539062 C 5.539062 5.480469 5.550781 5.472656 5.582031 5.515625 Z M 8.507812 5.597656 C 8.519531 5.609375 8.503906 5.613281 8.472656 5.609375 C 8.445312 5.609375 8.410156 5.59375 8.394531 5.582031 C 8.382812 5.570312 8.398438 5.566406 8.429688 5.570312 C 8.457031 5.574219 8.492188 5.585938 8.507812 5.597656 Z M 8.695312 5.570312 C 8.695312 5.597656 8.480469 5.734375 8.464844 5.71875 C 8.453125 5.710938 8.5 5.671875 8.5625 5.628906 C 8.6875 5.550781 8.695312 5.546875 8.695312 5.570312 Z M 8.695312 5.570312 "/>
<path style=" stroke:none;fill-rule:nonzero;fill:rgb(0%,0%,0%);fill-opacity:1;" d="M 27.394531 4.867188 C 27.445312 4.925781 27.453125 4.953125 27.421875 4.976562 C 27.390625 4.996094 27.394531 5 27.441406 4.984375 C 27.480469 4.976562 27.5 4.984375 27.5 5.015625 C 27.5 5.046875 27.535156 5.085938 27.578125 5.109375 C 27.65625 5.148438 27.65625 5.148438 27.589844 5.175781 C 27.527344 5.199219 27.527344 5.203125 27.582031 5.203125 C 27.613281 5.207031 27.640625 5.226562 27.640625 5.242188 C 27.640625 5.296875 27.464844 5.265625 27.421875 5.203125 C 27.394531 5.167969 27.390625 5.171875 27.410156 5.222656 C 27.425781 5.265625 27.414062 5.28125 27.375 5.265625 C 27.347656 5.253906 27.324219 5.261719 27.324219 5.28125 C 27.324219 5.308594 26.929688 5.316406 26.019531 5.304688 C 24.996094 5.296875 24.71875 5.304688 24.71875 5.335938 C 24.71875 5.359375 24.695312 5.382812 24.667969 5.382812 C 24.640625 5.382812 24.613281 5.398438 24.605469 5.421875 C 24.597656 5.445312 24.5625 5.453125 24.53125 5.441406 C 24.492188 5.425781 24.480469 5.398438 24.496094 5.359375 C 24.519531 5.304688 24.519531 5.304688 24.542969 5.363281 C 24.554688 5.402344 24.574219 5.414062 24.589844 5.390625 C 24.601562 5.371094 24.589844 5.335938 24.5625 5.316406 C 24.523438 5.28125 24.507812 5.285156 24.480469 5.328125 C 24.453125 5.375 24.4375 5.367188 24.347656 5.277344 C 24.292969 5.222656 24.230469 5.171875 24.210938 5.171875 C 24.195312 5.171875 24.25 5.238281 24.335938 5.320312 C 24.90625 5.859375 25.042969 5.988281 25.242188 6.195312 C 25.4375 6.394531 25.472656 6.421875 25.523438 6.382812 C 25.574219 6.339844 25.574219 6.34375 25.53125 6.394531 C 25.488281 6.453125 25.503906 6.480469 25.632812 6.632812 C 25.714844 6.726562 25.796875 6.796875 25.808594 6.789062 C 25.828125 6.777344 25.851562 6.789062 25.867188 6.808594 C 25.878906 6.835938 25.875 6.839844 25.851562 6.828125 C 25.78125 6.785156 25.804688 6.839844 25.917969 6.980469 C 25.980469 7.054688 26.046875 7.109375 26.058594 7.097656 C 26.078125 7.085938 26.085938 7.101562 26.074219 7.125 C 26.066406 7.148438 26.097656 7.214844 26.148438 7.273438 C 26.199219 7.332031 26.230469 7.351562 26.21875 7.316406 C 26.191406 7.234375 26.222656 7.242188 26.269531 7.328125 C 26.300781 7.382812 26.300781 7.394531 26.269531 7.382812 C 26.203125 7.339844 26.230469 7.398438 26.351562 7.566406 C 26.414062 7.652344 26.554688 7.863281 26.660156 8.039062 C 28.546875 11.082031 28.894531 14.796875 27.617188 18.140625 C 27.421875 18.652344 27.011719 19.488281 26.742188 19.925781 C 26.632812 20.105469 26.554688 20.265625 26.574219 20.277344 C 26.628906 20.328125 27.285156 20.382812 27.859375 20.382812 C 28.378906 20.382812 28.851562 20.351562 29.304688 20.292969 L 29.464844 20.269531 L 29.644531 19.886719 C 30.269531 18.515625 30.648438 17.171875 30.832031 15.675781 C 30.90625 15.046875 30.933594 13.714844 30.882812 13.054688 C 30.746094 11.28125 30.300781 9.605469 29.539062 8.027344 C 29.269531 7.464844 28.945312 6.90625 28.90625 6.929688 C 28.886719 6.941406 28.878906 6.925781 28.890625 6.902344 C 28.910156 6.84375 28.71875 6.554688 28.679688 6.585938 C 28.664062 6.605469 28.660156 6.59375 28.675781 6.574219 C 28.707031 6.515625 28.617188 6.378906 28.574219 6.417969 C 28.554688 6.429688 28.554688 6.421875 28.566406 6.402344 C 28.589844 6.359375 28.398438 6.058594 28.339844 6.054688 C 28.3125 6.054688 28.269531 6.074219 28.238281 6.089844 C 28.195312 6.125 28.195312 6.121094 28.234375 6.070312 C 28.261719 6.035156 28.296875 6.015625 28.3125 6.027344 C 28.375 6.066406 28.339844 6 28.195312 5.804688 C 28.019531 5.570312 27.652344 5.113281 27.558594 5.015625 C 27.519531 4.980469 27.46875 4.914062 27.441406 4.867188 C 27.410156 4.828125 27.375 4.792969 27.351562 4.792969 C 27.335938 4.792969 27.351562 4.828125 27.394531 4.867188 Z M 27.835938 5.394531 C 27.875 5.449219 27.875 5.476562 27.84375 5.511719 C 27.8125 5.546875 27.800781 5.550781 27.777344 5.515625 C 27.757812 5.484375 27.746094 5.484375 27.746094 5.511719 C 27.746094 5.53125 27.71875 5.546875 27.6875 5.539062 C 27.648438 5.535156 27.625 5.503906 27.628906 5.464844 C 27.636719 5.402344 27.589844 5.398438 26.195312 5.410156 C 25.140625 5.417969 24.75 5.40625 24.761719 5.378906 C 24.769531 5.351562 25.183594 5.339844 26.195312 5.335938 C 26.980469 5.332031 27.644531 5.316406 27.667969 5.300781 C 27.695312 5.285156 27.703125 5.253906 27.6875 5.230469 C 27.652344 5.179688 27.761719 5.300781 27.835938 5.394531 Z M 24.71875 5.449219 C 24.71875 5.464844 24.695312 5.488281 24.660156 5.5 C 24.613281 5.515625 24.609375 5.515625 24.648438 5.46875 C 24.695312 5.410156 24.71875 5.402344 24.71875 5.449219 Z M 24.769531 5.523438 C 24.75 5.589844 24.757812 5.597656 24.820312 5.578125 C 24.863281 5.570312 24.886719 5.578125 24.875 5.589844 C 24.847656 5.636719 24.980469 5.699219 25.019531 5.660156 C 25.042969 5.640625 25.054688 5.648438 25.054688 5.691406 C 25.054688 5.742188 25.042969 5.75 24.992188 5.726562 C 24.953125 5.703125 24.925781 5.707031 24.910156 5.734375 C 24.894531 5.761719 24.898438 5.765625 24.921875 5.75 C 24.945312 5.734375 24.964844 5.742188 24.964844 5.761719 C 24.964844 5.78125 24.941406 5.796875 24.910156 5.796875 C 24.878906 5.796875 24.863281 5.769531 24.871094 5.726562 C 24.875 5.683594 24.855469 5.640625 24.828125 5.632812 C 24.800781 5.621094 24.789062 5.632812 24.804688 5.65625 C 24.820312 5.679688 24.804688 5.6875 24.773438 5.671875 C 24.742188 5.664062 24.730469 5.640625 24.738281 5.621094 C 24.75 5.605469 24.738281 5.589844 24.722656 5.589844 C 24.695312 5.589844 24.695312 5.566406 24.726562 5.519531 C 24.785156 5.429688 24.800781 5.433594 24.769531 5.523438 Z M 25 5.570312 C 25 5.578125 24.984375 5.597656 24.964844 5.609375 C 24.945312 5.617188 24.929688 5.609375 24.929688 5.59375 C 24.929688 5.574219 24.945312 5.554688 24.964844 5.554688 C 24.984375 5.554688 25 5.5625 25 5.570312 Z M 28.011719 5.625 C 28 5.640625 28.019531 5.660156 28.046875 5.671875 C 28.078125 5.683594 28.089844 5.714844 28.074219 5.75 C 28.058594 5.789062 28.0625 5.800781 28.089844 5.785156 C 28.113281 5.773438 28.140625 5.78125 28.15625 5.800781 C 28.167969 5.828125 28.164062 5.832031 28.140625 5.820312 C 28.117188 5.804688 28.097656 5.816406 28.097656 5.839844 C 28.097656 5.867188 28.082031 5.859375 28.058594 5.824219 C 28.039062 5.789062 28.03125 5.75 28.042969 5.738281 C 28.054688 5.726562 28.03125 5.695312 27.992188 5.671875 C 27.921875 5.621094 27.925781 5.535156 27.996094 5.578125 C 28.015625 5.585938 28.019531 5.609375 28.011719 5.625 Z M 25.28125 5.855469 C 25.28125 5.882812 25.214844 5.898438 25.195312 5.875 C 25.1875 5.859375 25.199219 5.84375 25.230469 5.84375 C 25.257812 5.84375 25.28125 5.851562 25.28125 5.855469 Z M 25.179688 5.925781 C 25.226562 5.984375 25.226562 5.984375 25.160156 5.9375 C 25.097656 5.890625 25.09375 5.890625 25.121094 5.953125 C 25.136719 6.007812 25.132812 6.015625 25.101562 5.984375 C 25.082031 5.960938 25.074219 5.925781 25.085938 5.90625 C 25.117188 5.859375 25.125 5.859375 25.179688 5.925781 Z M 25.472656 6.140625 C 25.453125 6.152344 25.429688 6.175781 25.417969 6.191406 C 25.410156 6.207031 25.386719 6.199219 25.375 6.171875 C 25.367188 6.140625 25.386719 6.125 25.429688 6.121094 C 25.46875 6.117188 25.484375 6.125 25.472656 6.140625 Z M 28.449219 6.230469 C 28.449219 6.238281 28.4375 6.257812 28.414062 6.265625 C 28.398438 6.277344 28.378906 6.269531 28.378906 6.253906 C 28.378906 6.234375 28.398438 6.214844 28.414062 6.214844 C 28.4375 6.214844 28.449219 6.222656 28.449219 6.230469 Z M 28.449219 6.230469 "/>
<path style=" stroke:none;fill-rule:nonzero;fill:rgb(0%,0%,0%);fill-opacity:1;" d="M 27.6875 5.355469 C 27.6875 5.378906 27.671875 5.425781 27.660156 5.460938 C 27.636719 5.507812 27.644531 5.515625 27.691406 5.5 C 27.726562 5.484375 27.742188 5.453125 27.730469 5.421875 C 27.714844 5.375 27.71875 5.375 27.761719 5.421875 C 27.835938 5.519531 27.863281 5.496094 27.792969 5.398438 C 27.722656 5.304688 27.691406 5.292969 27.6875 5.355469 Z M 27.6875 5.355469 "/>
<path style=" stroke:none;fill-rule:nonzero;fill:rgb(0%,0%,0%);fill-opacity:1;" d="M 9.558594 4.859375 C 9.546875 4.882812 9.523438 4.890625 9.511719 4.878906 C 9.480469 4.859375 9.394531 4.945312 9.351562 5.035156 C 9.339844 5.0625 9.367188 5.046875 9.410156 4.992188 C 9.460938 4.941406 9.507812 4.90625 9.519531 4.917969 C 9.523438 4.921875 9.554688 4.910156 9.578125 4.878906 C 9.601562 4.851562 9.613281 4.828125 9.601562 4.828125 C 9.589844 4.828125 9.570312 4.84375 9.558594 4.859375 Z M 9.558594 4.859375 "/>
<path style=" stroke:none;fill-rule:nonzero;fill:rgb(0%,0%,0%);fill-opacity:1;" d="M 23.875 4.875 C 23.847656 4.910156 23.847656 4.929688 23.886719 4.960938 C 23.925781 4.992188 23.945312 4.992188 23.964844 4.960938 C 23.980469 4.933594 23.976562 4.929688 23.945312 4.949219 C 23.910156 4.96875 23.902344 4.957031 23.914062 4.902344 C 23.941406 4.8125 23.933594 4.808594 23.875 4.875 Z M 23.875 4.875 "/>
<path style=" stroke:none;fill-rule:nonzero;fill:rgb(0%,0%,0%);fill-opacity:1;" d="M 27.113281 4.84375 C 27.109375 4.859375 27.101562 4.90625 27.09375 4.941406 C 27.085938 4.988281 27.09375 4.996094 27.128906 4.964844 C 27.164062 4.9375 27.179688 4.9375 27.191406 4.972656 C 27.199219 4.996094 27.214844 4.988281 27.230469 4.949219 C 27.246094 4.910156 27.246094 4.890625 27.230469 4.90625 C 27.21875 4.921875 27.1875 4.902344 27.160156 4.867188 C 27.136719 4.835938 27.113281 4.824219 27.113281 4.84375 Z M 27.113281 4.84375 "/>
<path style=" stroke:none;fill-rule:nonzero;fill:rgb(0%,0%,0%);fill-opacity:1;" d="M 24.042969 4.925781 C 24.082031 4.949219 24.078125 4.960938 24.027344 4.980469 C 23.976562 5 23.976562 5.011719 24.050781 5.085938 C 24.09375 5.136719 24.140625 5.167969 24.148438 5.15625 C 24.160156 5.144531 24.136719 5.117188 24.105469 5.09375 C 24.046875 5.050781 24.046875 5.042969 24.097656 4.992188 C 24.148438 4.945312 24.148438 4.933594 24.097656 4.917969 C 24.019531 4.886719 23.988281 4.890625 24.042969 4.925781 Z M 24.042969 4.925781 "/>
<path style=" stroke:none;fill-rule:nonzero;fill:rgb(0%,0%,0%);fill-opacity:1;" d="M 6.121094 4.988281 C 6.144531 5 6.175781 4.996094 6.1875 4.984375 C 6.199219 4.976562 6.179688 4.964844 6.140625 4.96875 C 6.101562 4.96875 6.089844 4.980469 6.121094 4.988281 Z M 6.121094 4.988281 "/>
<path style=" stroke:none;fill-rule:nonzero;fill:rgb(0%,0%,0%);fill-opacity:1;" d="M 24.191406 4.996094 C 24.191406 5.019531 24.171875 5.027344 24.148438 5.015625 C 24.125 4.996094 24.121094 5.003906 24.136719 5.03125 C 24.15625 5.0625 24.171875 5.066406 24.199219 5.039062 C 24.222656 5.015625 24.230469 4.988281 24.214844 4.976562 C 24.199219 4.964844 24.191406 4.972656 24.191406 4.996094 Z M 24.191406 4.996094 "/>
<path style=" stroke:none;fill-rule:nonzero;fill:rgb(0%,0%,0%);fill-opacity:1;" d="M 24.449219 5.027344 C 24.460938 5.046875 24.457031 5.074219 24.4375 5.085938 C 24.414062 5.101562 24.410156 5.125 24.417969 5.140625 C 24.429688 5.160156 24.414062 5.164062 24.386719 5.152344 C 24.355469 5.140625 24.339844 5.121094 24.34375 5.109375 C 24.355469 5.09375 24.332031 5.082031 24.296875 5.078125 C 24.257812 5.078125 24.21875 5.085938 24.207031 5.109375 C 24.195312 5.125 24.199219 5.140625 24.21875 5.140625 C 24.234375 5.140625 24.292969 5.175781 24.339844 5.226562 C 24.394531 5.28125 24.441406 5.300781 24.453125 5.277344 C 24.464844 5.261719 24.457031 5.242188 24.4375 5.242188 C 24.414062 5.242188 24.410156 5.226562 24.417969 5.207031 C 24.433594 5.1875 24.460938 5.183594 24.480469 5.199219 C 24.515625 5.214844 24.515625 5.207031 24.480469 5.171875 C 24.449219 5.132812 24.449219 5.105469 24.476562 5.078125 C 24.503906 5.050781 24.5 5.035156 24.46875 5.015625 C 24.445312 5 24.433594 5.003906 24.449219 5.027344 Z M 24.449219 5.027344 "/>
<path style=" stroke:none;fill-rule:nonzero;fill:rgb(0%,0%,0%);fill-opacity:1;" d="M 27.363281 5.089844 C 27.363281 5.128906 27.375 5.140625 27.382812 5.109375 C 27.394531 5.085938 27.390625 5.054688 27.378906 5.046875 C 27.371094 5.03125 27.359375 5.050781 27.363281 5.089844 Z M 27.363281 5.089844 "/>
<path style=" stroke:none;fill-rule:nonzero;fill:rgb(0%,0%,0%);fill-opacity:1;" d="M 6.085938 5.09375 C 6.105469 5.101562 6.148438 5.101562 6.171875 5.09375 C 6.195312 5.082031 6.175781 5.078125 6.125 5.078125 C 6.078125 5.078125 6.058594 5.082031 6.085938 5.09375 Z M 6.085938 5.09375 "/>
<path style=" stroke:none;fill-rule:nonzero;fill:rgb(0%,0%,0%);fill-opacity:1;" d="M 27.429688 5.09375 C 27.429688 5.109375 27.445312 5.144531 27.464844 5.171875 C 27.492188 5.21875 27.5 5.21875 27.5 5.167969 C 27.5 5.136719 27.484375 5.097656 27.464844 5.085938 C 27.445312 5.078125 27.429688 5.078125 27.429688 5.09375 Z M 27.429688 5.09375 "/>
<path style=" stroke:none;fill-rule:nonzero;fill:rgb(0%,0%,0%);fill-opacity:1;" d="M 24.742188 5.128906 C 24.730469 5.140625 24.71875 5.167969 24.71875 5.1875 C 24.71875 5.207031 24.734375 5.203125 24.761719 5.179688 C 24.78125 5.160156 24.792969 5.132812 24.785156 5.121094 C 24.773438 5.109375 24.753906 5.113281 24.742188 5.128906 Z M 24.742188 5.128906 "/>
<path style=" stroke:none;fill-rule:nonzero;fill:rgb(0%,0%,0%);fill-opacity:1;" d="M 6.085938 5.265625 C 6.109375 5.277344 6.140625 5.273438 6.152344 5.265625 C 6.164062 5.253906 6.144531 5.242188 6.105469 5.246094 C 6.066406 5.246094 6.054688 5.257812 6.085938 5.265625 Z M 6.085938 5.265625 "/>
<path style=" stroke:none;fill-rule:nonzero;fill:rgb(0%,0%,0%);fill-opacity:1;" d="M 24.636719 5.265625 C 24.625 5.277344 24.613281 5.304688 24.613281 5.328125 C 24.613281 5.347656 24.628906 5.34375 24.65625 5.320312 C 24.675781 5.296875 24.6875 5.269531 24.679688 5.261719 C 24.667969 5.25 24.648438 5.253906 24.636719 5.265625 Z M 24.636719 5.265625 "/>
<path style=" stroke:none;fill-rule:nonzero;fill:rgb(0%,0%,0%);fill-opacity:1;" d="M 23.460938 5.722656 C 23.042969 5.867188 22.609375 6.25 22.117188 6.898438 C 21.957031 7.109375 21.839844 7.296875 21.847656 7.320312 C 21.859375 7.34375 21.851562 7.359375 21.835938 7.34375 C 21.777344 7.3125 21.148438 8.363281 20.589844 9.410156 C 20.464844 9.648438 20.0625 10.421875 19.699219 11.128906 C 18.964844 12.554688 18.527344 13.359375 18.160156 13.957031 C 17.355469 15.269531 16.667969 15.960938 16.074219 16.054688 C 15.957031 16.078125 15.910156 16.066406 15.808594 16 C 15.445312 15.757812 15.203125 14.972656 14.789062 12.671875 C 14.53125 11.257812 14.304688 10.15625 14.171875 9.636719 C 13.796875 8.199219 13.359375 7.488281 12.851562 7.488281 C 12.269531 7.488281 11.570312 8.59375 10.035156 11.945312 C 8.414062 15.480469 7.71875 16.867188 6.839844 18.316406 C 5.660156 20.253906 4.539062 21.515625 3.1875 22.410156 C 2.707031 22.730469 1.894531 23.121094 1.367188 23.292969 C 0.945312 23.425781 0.269531 23.578125 0.0859375 23.578125 L -0.00390625 23.578125 L 0.0078125 23.890625 L 0.0195312 24.210938 L 0.175781 24.257812 C 0.519531 24.359375 1.203125 24.480469 1.660156 24.515625 C 2.785156 24.597656 3.839844 24.390625 4.824219 23.886719 C 5.433594 23.574219 5.832031 23.277344 6.429688 22.691406 C 7.332031 21.800781 7.941406 20.933594 9.402344 18.4375 C 10.691406 16.238281 11.371094 15.359375 12.058594 15.011719 C 12.613281 14.730469 12.945312 15.085938 13.132812 16.164062 C 13.222656 16.6875 13.265625 17.117188 13.34375 18.488281 C 13.382812 19.140625 13.433594 19.859375 13.449219 20.085938 C 13.550781 21.289062 13.746094 22.082031 14.039062 22.457031 C 14.34375 22.859375 14.851562 22.78125 15.390625 22.25 C 16.117188 21.535156 16.8125 20.425781 18.414062 17.429688 C 19.527344 15.355469 19.984375 14.558594 20.472656 13.878906 C 21.171875 12.890625 21.730469 12.640625 21.960938 13.222656 C 22.054688 13.464844 22.046875 14.734375 21.941406 15.675781 C 21.695312 17.886719 21.640625 18.675781 21.664062 19.617188 C 21.699219 20.910156 21.910156 21.636719 22.394531 22.117188 C 22.757812 22.484375 23.316406 22.734375 23.960938 22.816406 C 24.460938 22.878906 25.46875 22.839844 26.121094 22.726562 C 27.601562 22.472656 29.351562 21.914062 31.378906 21.046875 L 32.007812 20.78125 L 32.007812 20.632812 C 32.007812 20.550781 31.996094 20.484375 31.984375 20.484375 C 31.976562 20.484375 31.8125 20.523438 31.625 20.570312 C 30.792969 20.777344 29.621094 20.972656 28.769531 21.046875 C 28.175781 21.097656 26.957031 21.066406 26.554688 20.992188 C 25.671875 20.828125 25.144531 20.589844 24.683594 20.140625 C 24.210938 19.671875 24.015625 19.195312 23.988281 18.421875 C 23.96875 17.871094 23.996094 17.597656 24.261719 15.671875 C 24.585938 13.328125 24.742188 11.960938 24.867188 10.519531 C 24.925781 9.789062 24.925781 7.722656 24.867188 7.308594 C 24.769531 6.675781 24.601562 6.125 24.535156 6.21875 C 24.507812 6.257812 24.507812 6.253906 24.519531 6.203125 C 24.546875 6.125 24.480469 5.996094 24.429688 6.027344 C 24.40625 6.042969 24.402344 6.035156 24.414062 6.011719 C 24.449219 5.957031 24.382812 5.878906 24.210938 5.769531 C 24.019531 5.65625 23.710938 5.636719 23.460938 5.722656 Z M 23.664062 5.75 C 23.605469 5.796875 23.578125 5.796875 23.546875 5.765625 C 23.515625 5.734375 23.519531 5.730469 23.566406 5.746094 C 23.601562 5.761719 23.625 5.753906 23.625 5.734375 C 23.625 5.710938 23.65625 5.695312 23.6875 5.695312 C 23.734375 5.695312 23.730469 5.703125 23.664062 5.75 Z M 23.933594 5.714844 C 23.921875 5.726562 23.890625 5.730469 23.867188 5.71875 C 23.839844 5.707031 23.847656 5.699219 23.886719 5.699219 C 23.925781 5.695312 23.945312 5.703125 23.933594 5.714844 Z M 24.109375 5.796875 C 24.121094 5.832031 24.117188 5.835938 24.09375 5.8125 C 24.082031 5.792969 24.042969 5.765625 24.015625 5.753906 C 23.976562 5.734375 23.980469 5.734375 24.027344 5.738281 C 24.066406 5.742188 24.101562 5.769531 24.109375 5.796875 Z M 23.945312 5.792969 C 23.945312 5.808594 23.898438 5.816406 23.839844 5.804688 C 23.78125 5.796875 23.730469 5.785156 23.730469 5.777344 C 23.730469 5.769531 23.78125 5.765625 23.839844 5.765625 C 23.898438 5.765625 23.945312 5.777344 23.945312 5.792969 Z M 24.261719 5.867188 C 24.28125 5.90625 24.289062 5.9375 24.28125 5.9375 C 24.269531 5.9375 24.246094 5.90625 24.226562 5.867188 C 24.203125 5.828125 24.195312 5.796875 24.203125 5.796875 C 24.214844 5.796875 24.238281 5.828125 24.261719 5.867188 Z M 23.121094 6.0625 C 23.125 6.09375 23.121094 6.109375 23.105469 6.097656 C 23.09375 6.082031 23.082031 6.046875 23.078125 6.019531 C 23.074219 5.988281 23.078125 5.976562 23.089844 5.984375 C 23.101562 6 23.117188 6.035156 23.121094 6.0625 Z M 23.027344 6.054688 C 23.027344 6.0625 23.003906 6.078125 22.972656 6.089844 C 22.945312 6.101562 22.929688 6.097656 22.941406 6.078125 C 22.960938 6.042969 23.027344 6.027344 23.027344 6.054688 Z M 22.804688 6.285156 C 22.804688 6.328125 22.789062 6.339844 22.769531 6.324219 C 22.753906 6.304688 22.75 6.273438 22.761719 6.253906 C 22.796875 6.203125 22.804688 6.203125 22.804688 6.285156 Z M 22.804688 6.285156 "/>
<path style=" stroke:none;fill-rule:nonzero;fill:rgb(0%,0%,0%);fill-opacity:1;" d="M 8.019531 21.921875 C 8.007812 21.949219 7.839844 22.164062 7.648438 22.398438 C 7.285156 22.84375 6.789062 23.359375 6.5 23.59375 L 6.335938 23.726562 L 6.484375 23.882812 C 6.570312 23.964844 6.828125 24.207031 7.058594 24.417969 C 9.066406 26.234375 11.597656 27.453125 14.253906 27.894531 C 14.789062 27.984375 14.816406 27.984375 16.671875 27.984375 C 18.515625 27.984375 18.558594 27.984375 19.070312 27.898438 C 20.503906 27.660156 21.832031 27.226562 23.117188 26.578125 C 24.273438 25.996094 25.160156 25.40625 26.128906 24.566406 C 26.480469 24.261719 27.445312 23.296875 27.5 23.191406 C 27.523438 23.148438 27.4375 23.160156 27.03125 23.253906 C 26.082031 23.472656 25.636719 23.523438 24.71875 23.523438 C 24.164062 23.523438 23.824219 23.511719 23.695312 23.480469 L 23.492188 23.433594 L 23.074219 23.703125 C 19.320312 26.125 14.492188 26.214844 10.644531 23.929688 C 9.832031 23.445312 9.066406 22.855469 8.414062 22.207031 C 8.230469 22.023438 8.070312 21.875 8.058594 21.875 C 8.046875 21.875 8.027344 21.894531 8.019531 21.921875 Z M 8.019531 21.921875 "/>
</g>
</svg>
