<?xml version="1.0" standalone="no"?>
<!DOCTYPE svg PUBLIC "-//W3C//DTD SVG 20010904//EN"
 "http://www.w3.org/TR/2001/REC-SVG-20010904/DTD/svg10.dtd">
<svg version="1.0" xmlns="http://www.w3.org/2000/svg"
 width="909.000000pt" height="806.000000pt" viewBox="0 0 909.000000 806.000000"
 preserveAspectRatio="xMidYMid meet">

<g transform="translate(0.000000,806.000000) scale(0.100000,-0.100000)"
fill="#000000" stroke="none">
<path d="M3898 7233 c7 -3 16 -2 19 1 4 3 -2 6 -13 5 -11 0 -14 -3 -6 -6z"/>
<path d="M7235 7180 c10 -11 20 -20 23 -20 3 0 -3 9 -13 20 -10 11 -20 20 -23
20 -3 0 3 -9 13 -20z"/>
<path d="M2219 7173 c-13 -16 -12 -17 4 -4 9 7 17 15 17 17 0 8 -8 3 -21 -13z"/>
<path d="M7400 7047 c0 -2 15 -16 33 -33 l32 -29 -29 33 c-28 30 -36 37 -36
29z"/>
<path d="M6197 6999 c7 -7 15 -10 18 -7 3 3 -2 9 -12 12 -14 6 -15 5 -6 -5z"/>
<path d="M1981 6970 c-13 -11 -19 -20 -14 -20 6 0 18 9 28 20 23 25 17 25 -14
0z"/>
<path d="M1909 6899 c-23 -19 -23 -20 -2 -10 12 6 25 16 28 21 10 16 -1 12
-26 -11z"/>
<path d="M6413 6895 c0 -8 4 -12 9 -9 5 3 6 10 3 15 -9 13 -12 11 -12 -6z"/>
<path d="M7555 6882 c4 -4 12 -7 18 -7 6 0 17 -11 24 -25 8 -16 13 -19 13 -9
0 19 -24 42 -47 45 -8 2 -12 -1 -8 -4z"/>
<path d="M2990 6849 c-22 -18 -22 -19 -3 -10 12 6 25 16 28 21 9 15 3 12 -25
-11z"/>
<path d="M6440 6866 c0 -2 7 -7 16 -10 8 -3 12 -2 9 4 -6 10 -25 14 -25 6z"/>
<path d="M6480 6847 c0 -2 19 -17 43 -32 23 -16 37 -22 30 -14 -12 15 -73 53
-73 46z"/>
<path d="M1831 6817 c-11 -13 -21 -27 -21 -31 0 -5 9 2 21 15 15 17 19 19 15
7 -7 -24 1 -23 14 1 15 29 -4 34 -29 8z"/>
<path d="M2886 6832 c-3 -5 1 -9 9 -9 8 0 12 4 9 9 -3 4 -7 8 -9 8 -2 0 -6 -4
-9 -8z"/>
<path d="M7658 6800 c31 -35 42 -58 22 -45 -6 3 -7 -1 -4 -10 4 -9 13 -14 20
-11 22 8 28 -14 8 -29 -11 -8 -17 -15 -14 -16 20 -5 61 -5 65 0 2 4 -27 38
-63 77 -37 39 -52 54 -34 34z m86 -98 c3 -5 -1 -9 -9 -9 -8 0 -15 4 -15 9 0 4
4 8 9 8 6 0 12 -4 15 -8z"/>
<path d="M2900 6793 l-25 -25 28 17 c15 10 27 21 27 26 0 12 -2 11 -30 -18z"/>
<path d="M6594 6771 c20 -22 26 -25 26 -13 0 4 -10 13 -22 21 -23 14 -23 14
-4 -8z"/>
<path d="M1768 6753 c-14 -16 -23 -34 -21 -41 3 -8 -2 -10 -14 -6 -15 5 -15 4
-3 -5 11 -8 18 -7 27 6 7 9 10 19 8 23 -3 4 3 14 12 21 15 12 16 12 10 -5 -6
-16 -5 -17 8 -6 12 10 18 10 33 -1 15 -13 16 -12 3 4 -7 9 -20 17 -28 17 -8 0
-11 5 -8 10 11 18 -1 10 -27 -17z"/>
<path d="M2856 6763 c-6 -14 -5 -15 5 -6 7 7 10 15 7 18 -3 3 -9 -2 -12 -12z"/>
<path d="M6692 6773 c-6 -2 -9 -9 -6 -15 4 -6 -1 -8 -12 -4 -11 3 -26 1 -34
-5 -12 -8 -10 -9 7 -4 17 5 21 3 18 -7 -3 -8 15 -29 44 -51 39 -29 52 -34 58
-23 4 8 17 16 28 18 17 3 15 5 -7 10 -15 3 -27 2 -26 -1 0 -3 0 -12 -1 -20 -1
-17 -16 -5 -16 12 0 7 -9 12 -20 12 -11 0 -19 6 -17 13 1 8 -2 11 -8 7 -5 -3
-10 -1 -10 5 0 6 -4 8 -10 5 -5 -3 -10 -1 -10 4 0 6 4 11 10 11 5 0 14 9 20
20 6 11 9 20 8 19 -2 0 -9 -3 -16 -6z"/>
<path d="M7645 6770 c-4 -6 -11 -7 -17 -4 -6 4 -5 -2 2 -15 9 -18 30 -21 30
-5 0 3 -4 2 -10 -1 -14 -9 -13 8 2 23 7 7 9 12 6 12 -4 0 -10 -5 -13 -10z"/>
<path d="M2778 6763 c-24 -6 -23 -19 1 -19 11 0 18 3 15 7 -2 4 4 10 13 12 12
3 13 5 3 5 -8 0 -23 -2 -32 -5z"/>
<path d="M2820 6745 c-8 -9 -8 -15 -2 -15 12 0 26 19 19 26 -2 2 -10 -2 -17
-11z"/>
<path d="M2727 6735 c-4 -8 -2 -17 4 -21 7 -4 6 -10 -1 -19 -17 -20 11 -25 36
-6 27 21 29 36 4 37 -15 1 -18 -2 -10 -11 7 -9 5 -16 -7 -26 -15 -12 -16 -12
-10 3 3 10 2 20 -3 23 -5 3 -7 12 -3 20 3 8 3 15 0 15 -3 0 -7 -7 -10 -15z"/>
<path d="M2644 6688 c-4 -7 -3 -8 4 -4 19 12 35 -3 21 -20 -6 -7 -15 -12 -18
-9 -4 2 -8 -3 -8 -11 0 -10 8 -7 27 11 14 14 30 22 35 18 4 -5 5 -2 1 5 -4 7
-11 10 -16 7 -5 -3 -11 -1 -15 5 -8 13 -22 13 -31 -2z"/>
<path d="M6830 6680 c-8 -5 -10 -10 -5 -10 6 0 17 5 25 10 8 5 11 10 5 10 -5
0 -17 -5 -25 -10z"/>
<path d="M1669 6643 c-69 -74 -120 -143 -114 -153 4 -6 1 -9 -5 -8 -7 2 -30
-22 -53 -52 -22 -30 -31 -47 -20 -37 17 15 23 16 29 5 4 -7 4 -10 -1 -6 -4 4
-23 -4 -41 -19 -26 -19 -33 -31 -30 -49 3 -14 1 -22 -5 -19 -5 4 -7 11 -4 16
4 5 4 9 2 9 -11 0 -77 -112 -72 -121 4 -5 1 -8 -5 -7 -7 2 -47 -55 -91 -127
-297 -491 -487 -1068 -551 -1675 -19 -183 -16 -646 6 -835 55 -473 176 -892
387 -1334 l69 -145 41 40 c94 90 240 273 373 467 l88 128 -22 57 c-313 802
-316 1659 -8 2447 119 305 319 648 509 877 28 33 46 65 43 71 -4 7 -3 9 1 4 5
-4 21 5 37 20 29 27 38 50 16 37 -8 -4 -10 -3 -5 2 5 5 12 9 15 9 16 1 32 17
26 27 -4 6 -3 8 3 5 16 -10 54 37 47 59 -5 15 -4 16 5 4 8 -12 24 -1 88 62 43
42 103 97 133 123 30 25 55 51 55 58 1 7 6 11 11 10 6 -1 11 5 11 13 0 8 -4
14 -9 14 -4 0 -8 -5 -8 -10 0 -7 -6 -7 -19 -1 -23 13 -45 -8 -38 -36 3 -13 5
-11 7 7 1 23 2 23 10 5 8 -22 -13 -55 -36 -55 -7 0 -19 -9 -27 -20 -11 -16
-16 -18 -20 -7 -3 7 4 19 14 26 11 6 17 16 14 21 -10 17 -28 11 -21 -6 5 -13
2 -15 -14 -11 -17 4 -18 2 -9 -14 6 -12 6 -19 0 -19 -5 0 -11 6 -14 13 -2 6
-8 9 -12 5 -4 -4 0 -20 9 -35 l17 -28 -20 23 c-10 12 -24 22 -30 22 -6 0 -11
7 -11 15 0 8 6 15 14 15 7 0 16 9 19 20 3 12 0 20 -8 20 -7 0 -15 -9 -18 -20
-3 -11 -9 -20 -14 -19 -37 6 -715 -3 -704 -10 11 -7 10 -11 -5 -18 -11 -5 -25
-8 -31 -7 -7 1 -18 2 -24 3 -5 0 -7 6 -3 13 5 7 0 9 -14 6 -24 -7 -52 17 -30
24 7 3 21 0 30 -6 13 -7 21 -6 35 6 10 9 29 18 43 21 l25 4 -26 2 c-25 1 -59
28 -59 47 1 5 9 -1 20 -14 10 -12 21 -18 24 -13 3 5 -1 11 -9 15 -8 3 -15 13
-15 23 0 11 3 14 8 8 9 -14 28 -13 44 3 10 10 9 15 -3 27 -13 13 -19 11 -50
-22z m47 -2 c-4 -5 -13 -8 -22 -4 -11 4 -12 8 -3 20 14 16 36 2 25 -16z m887
-57 c-7 -19 -10 -18 -16 5 -3 13 -1 18 9 14 7 -2 10 -11 7 -19z m-943 -18 c0
-5 -7 -3 -15 4 -21 17 -19 5 3 -16 16 -17 16 -17 -3 -10 -11 5 -26 9 -33 9 -7
0 -4 9 10 24 21 22 37 18 38 -11z m-67 -67 c-8 -8 -13 -7 -18 2 -6 8 -4 10 5
4 10 -6 12 -4 6 11 -6 15 -5 17 5 7 9 -10 10 -16 2 -24z m817 16 c0 -13 -44
-15 -337 -15 -221 0 -334 3 -327 10 6 6 138 11 334 13 179 1 326 3 328 5 1 1
2 -5 2 -13z m90 -29 c0 -3 -4 -8 -10 -11 -5 -3 -10 -1 -10 4 0 6 5 11 10 11 6
0 10 -2 10 -4z m-915 -15 c3 -5 2 -12 -3 -15 -5 -3 -9 1 -9 9 0 17 3 19 12 6z
m831 -23 c3 -4 -1 -5 -10 -4 -8 1 -18 5 -22 8 -3 4 1 5 10 4 8 -1 18 -5 22 -8z
m54 8 c0 -8 -61 -48 -66 -43 -3 2 10 14 28 26 35 22 38 23 38 17z"/>
<path d="M7780 6658 c15 -17 17 -24 8 -31 -9 -6 -8 -7 5 -3 11 3 17 0 17 -9 0
-8 10 -20 22 -26 22 -12 22 -12 3 -20 -17 -6 -17 -8 -2 -8 9 -1 17 -6 17 -11
0 -15 -50 -6 -62 11 -8 11 -9 10 -4 -5 5 -13 2 -17 -9 -12 -8 3 -15 1 -15 -5
0 -8 -112 -10 -370 -7 -291 2 -370 0 -370 -9 0 -7 -6 -13 -14 -13 -8 0 -16 -5
-18 -12 -2 -6 -12 -9 -21 -5 -11 4 -14 12 -10 23 6 16 7 16 13 -1 4 -11 9 -14
13 -8 4 6 0 16 -7 22 -11 10 -16 9 -23 -4 -8 -13 -13 -11 -38 15 -16 16 -33
30 -39 30 -5 0 11 -19 35 -42 162 -155 201 -193 258 -252 55 -58 65 -65 80
-54 14 12 14 11 2 -4 -12 -16 -8 -24 29 -68 23 -27 46 -48 50 -45 5 3 12 0 16
-6 4 -8 3 -9 -4 -5 -20 12 -13 -4 19 -44 18 -22 36 -37 40 -34 5 3 7 -1 4 -8
-2 -7 7 -26 21 -43 15 -17 24 -22 20 -12 -8 24 1 21 15 -4 8 -15 8 -19 0 -15
-19 12 -12 -5 23 -53 18 -25 58 -86 88 -136 535 -877 634 -1946 271 -2910 -55
-147 -172 -388 -248 -514 -31 -51 -53 -97 -48 -101 16 -15 202 -30 365 -30
148 0 282 9 410 26 l46 6 51 111 c177 395 285 782 337 1212 21 182 29 565 15
755 -39 511 -166 994 -382 1448 -77 162 -169 323 -180 316 -5 -3 -7 1 -4 8 6
17 -49 100 -60 91 -4 -5 -5 -2 -1 4 9 16 -17 56 -29 45 -5 -4 -5 -2 -2 4 7 13
-48 99 -65 100 -7 0 -20 -5 -28 -10 -13 -10 -13 -9 -1 6 7 10 17 15 22 12 18
-11 8 8 -33 64 -51 68 -155 199 -181 227 -11 11 -26 30 -34 43 -9 12 -19 22
-25 22 -5 0 0 -10 12 -22z m125 -152 c11 -15 12 -23 3 -33 -9 -11 -13 -12 -19
-1 -6 9 -9 9 -9 1 0 -6 -8 -10 -17 -8 -11 1 -17 10 -16 21 2 18 -12 19 -408
16 -299 -2 -410 1 -407 9 3 8 120 11 408 12 223 1 411 6 418 10 7 5 10 14 5
21 -10 14 21 -21 42 -48z m-885 -15 c0 -5 -7 -12 -16 -15 -14 -5 -15 -4 -4 9
14 17 20 19 20 6z m15 -22 c-6 -19 -4 -21 14 -16 12 3 19 1 16 -3 -8 -13 30
-31 41 -20 6 6 10 3 10 -9 0 -15 -4 -17 -18 -10 -11 6 -19 5 -24 -3 -4 -7 -3
-8 4 -4 7 4 12 2 12 -3 0 -6 -7 -11 -15 -11 -9 0 -14 8 -12 21 1 12 -4 24 -12
27 -8 3 -11 0 -7 -7 5 -7 1 -9 -8 -5 -9 3 -13 10 -10 15 3 5 0 9 -5 9 -7 0 -7
7 1 20 17 26 21 25 13 -1z m65 -13 c0 -3 -4 -8 -10 -11 -5 -3 -10 -1 -10 4 0
6 5 11 10 11 6 0 10 -2 10 -4z m855 -16 c-3 -4 2 -10 10 -14 9 -3 12 -12 8
-22 -4 -11 -3 -15 5 -10 6 3 14 1 18 -5 4 -8 3 -9 -4 -5 -7 4 -12 1 -12 -6 0
-8 -5 -6 -11 5 -6 10 -8 21 -5 24 3 4 -3 13 -14 20 -20 14 -19 39 1 27 5 -3 7
-9 4 -14z m-775 -66 c0 -8 -19 -13 -24 -6 -3 5 1 9 9 9 8 0 15 -2 15 -3z m-29
-21 c13 -17 13 -17 -5 -3 -18 14 -19 13 -12 -5 5 -15 4 -17 -5 -8 -6 6 -8 16
-5 22 9 14 11 14 27 -6z m83 -61 c-5 -4 -12 -11 -15 -15 -3 -5 -9 -2 -12 5 -3
9 3 14 15 15 11 1 16 -1 12 -5z m846 -26 c0 -3 -4 -8 -10 -11 -5 -3 -10 -1
-10 4 0 6 5 11 10 11 6 0 10 -2 10 -4z"/>
<path d="M7863 6518 c0 -7 -4 -21 -8 -31 -6 -13 -4 -16 9 -11 10 4 15 13 12
23 -5 13 -4 13 8 -1 21 -28 29 -21 9 7 -20 27 -29 31 -30 13z"/>
<path d="M2715 6660 c-4 -6 -10 -8 -14 -5 -9 5 -33 -19 -45 -45 -4 -8 4 -3 17
12 14 15 27 25 30 22 2 -2 10 2 17 11 7 8 10 15 7 15 -3 0 -9 -5 -12 -10z"/>
<path d="M6781 6656 c-8 -10 -8 -16 3 -25 11 -9 16 -9 22 0 5 8 3 9 -6 4 -10
-6 -12 -3 -8 13 7 26 5 27 -11 8z"/>
<path d="M7700 6665 c-1 -5 -3 -18 -5 -28 -3 -14 0 -16 10 -7 10 8 14 8 17 -2
3 -7 7 -5 12 7 4 11 4 16 0 12 -4 -4 -13 1 -20 11 -7 9 -14 13 -14 7z"/>
<path d="M6828 6641 c11 -6 10 -10 -4 -15 -15 -6 -15 -9 6 -31 13 -14 26 -23
28 -20 3 3 -3 11 -12 18 -17 12 -17 15 -2 29 14 14 14 17 0 22 -23 9 -31 7
-16 -3z"/>
<path d="M1738 6623 c7 -3 16 -2 19 1 4 3 -2 6 -13 5 -11 0 -14 -3 -6 -6z"/>
<path d="M6870 6621 c0 -7 -5 -9 -12 -5 -7 5 -8 3 -3 -5 5 -9 10 -10 18 -2 6
6 8 14 4 18 -4 3 -7 1 -7 -6z"/>
<path d="M6944 6612 c3 -6 2 -13 -4 -17 -6 -4 -8 -11 -5 -16 3 -5 -1 -6 -9 -3
-9 3 -14 9 -12 13 3 4 -4 7 -14 8 -11 1 -22 -2 -25 -8 -4 -5 -2 -9 3 -9 5 0
21 -11 35 -25 15 -16 28 -22 32 -15 3 5 1 10 -5 10 -6 0 -8 5 -5 10 4 6 12 7
18 3 9 -5 9 -3 0 8 -9 11 -9 19 -2 26 8 8 7 13 -2 18 -7 5 -10 4 -5 -3z"/>
<path d="M7771 6594 c0 -11 3 -14 6 -6 3 7 2 16 -1 19 -3 4 -6 -2 -5 -13z"/>
<path d="M1728 6593 c6 -2 18 -2 25 0 6 3 1 5 -13 5 -14 0 -19 -2 -12 -5z"/>
<path d="M7790 6593 c0 -4 5 -15 10 -23 8 -13 10 -13 10 2 0 9 -4 20 -10 23
-5 3 -10 3 -10 -2z"/>
<path d="M7027 6583 c-4 -3 -7 -11 -7 -17 0 -6 5 -5 12 2 6 6 9 14 7 17 -3 3
-9 2 -12 -2z"/>
<path d="M1728 6543 c7 -3 16 -2 19 1 4 3 -2 6 -13 5 -11 0 -14 -3 -6 -6z"/>
<path d="M6997 6543 c-4 -3 -7 -11 -7 -17 0 -6 5 -5 12 2 6 6 9 14 7 17 -3 3
-9 2 -12 -2z"/>
<path d="M6663 6412 c-119 -42 -242 -152 -382 -339 -45 -60 -79 -114 -76 -121
3 -7 1 -11 -4 -7 -16 9 -195 -294 -353 -595 -36 -69 -150 -291 -253 -495 -209
-411 -333 -643 -437 -815 -229 -378 -424 -577 -593 -604 -33 -6 -47 -3 -75 16
-103 70 -172 296 -290 958 -73 408 -137 725 -175 875 -107 414 -231 618 -375
618 -166 0 -364 -318 -800 -1283 -460 -1018 -658 -1418 -908 -1835 -334 -558
-653 -921 -1037 -1179 -136 -92 -367 -205 -517 -254 -119 -39 -311 -82 -364
-82 l-25 0 3 -91 3 -92 45 -13 c98 -30 292 -64 421 -74 320 -24 619 36 899
181 173 90 286 175 456 344 256 256 429 506 844 1225 366 633 559 886 755 987
157 81 252 -22 305 -332 25 -151 37 -275 60 -670 11 -187 25 -394 30 -460 28
-346 84 -575 167 -683 87 -115 231 -93 384 60 206 206 404 525 859 1388 316
598 446 827 584 1023 199 285 358 356 423 189 27 -70 24 -435 -6 -707 -69
-636 -85 -864 -78 -1135 10 -372 70 -581 207 -720 103 -105 262 -177 445 -201
142 -18 428 -7 613 26 421 73 918 234 1494 483 l178 77 0 43 c0 23 -3 42 -6
42 -3 0 -49 -11 -102 -24 -237 -60 -570 -116 -811 -137 -169 -15 -515 -6 -629
15 -251 47 -401 116 -532 246 -134 134 -190 272 -197 495 -6 158 2 237 77 792
92 674 137 1068 172 1483 17 211 17 806 0 925 -27 182 -75 341 -94 314 -8 -11
-8 -10 -4 4 7 23 -11 60 -26 51 -7 -4 -8 -2 -4 5 10 15 -9 38 -58 69 -54 33
-142 39 -213 14z m58 -8 c-17 -13 -25 -14 -34 -5 -9 9 -8 11 6 6 10 -4 17 -2
17 4 0 6 8 11 17 11 14 0 13 -3 -6 -16z m76 10 c-3 -3 -12 -4 -19 -1 -8 3 -5
6 6 6 11 1 17 -2 13 -5z m50 -24 c3 -10 2 -11 -4 -4 -4 6 -15 14 -23 17 -11 5
-9 6 4 4 11 -1 21 -9 23 -17z m-47 2 c0 -5 -13 -7 -30 -4 -16 2 -30 6 -30 8 0
2 14 4 30 4 17 0 30 -4 30 -8z m90 -22 c6 -11 8 -20 6 -20 -3 0 -10 9 -16 20
-6 11 -8 20 -6 20 3 0 10 -9 16 -20z m-324 -56 c1 -9 0 -13 -4 -10 -3 4 -7 14
-8 22 -1 9 0 13 4 10 3 -4 7 -14 8 -22z m-26 2 c0 -2 -7 -7 -16 -10 -8 -3 -12
-2 -9 4 6 10 25 14 25 6z m-64 -66 c0 -12 -4 -16 -9 -11 -5 5 -6 14 -3 20 10
15 12 14 12 -9z"/>
<path d="M2277 1746 c-3 -7 -50 -69 -105 -137 -103 -128 -244 -276 -326 -344
l-47 -38 43 -45 c24 -24 97 -94 163 -154 570 -523 1289 -875 2043 -1002 152
-26 160 -26 687 -26 523 0 536 0 681 25 407 69 784 194 1149 380 329 168 580
338 856 580 100 88 373 365 389 396 7 12 -18 9 -133 -18 -270 -63 -396 -78
-657 -78 -157 0 -254 4 -291 13 l-57 13 -119 -78 c-1066 -697 -2437 -723
-3530 -65 -231 140 -448 310 -633 496 -52 53 -98 96 -101 96 -4 0 -9 -6 -12
-14z"/>
</g>
</svg>
